<?xml version="1.0" standalone="no"?>
<!DOCTYPE svg PUBLIC "-//W3C//DTD SVG 1.1//EN" "http://www.w3.org/Graphics/SVG/1.1/DTD/svg11.dtd" >
<!--
2015-12-16: Created with FontForge (http://fontforge.org)
-->
<svg xmlns="http://www.w3.org/2000/svg" xmlns:xlink="http://www.w3.org/1999/xlink" version="1.1">
<metadata>
Created by FontForge 20150928 at Wed Dec 16 11:40:33 2015
 By camilo
Copyright (c) 2015, camilo
</metadata>
<defs>
<font id="cityapp" horiz-adv-x="472" >
  <font-face 
    font-family="cityapp"
    font-weight="400"
    font-stretch="normal"
    units-per-em="512"
    panose-1="2 0 5 3 0 0 0 0 0 0"
    ascent="448"
    descent="-64"
    bbox="-0.353128 -54 492 438"
    underline-thickness="25.6"
    underline-position="-51.2"
    unicode-range="U+F100-F126"
  />
    <missing-glyph />
    <glyph glyph-name="uniF100" unicode="&#xf100;" horiz-adv-x="296" 
d="M252 392c30 -21 44 -53 44 -95c0 -21 -7 -43 -21 -63c-4 -7 -19 -20 -45 -41l-24 -15c-13 -12 -21 -22 -24 -31c-2 -6 -4 -13 -4 -23c0 -4 -3 -7 -8 -7h-66c-5 0 -8 2 -8 6c1 34 6 55 14 64c6 7 14 16 25 24c11 9 20 16 28 22l13 7c7 6 13 11 17 18c10 15 14 26 14 35
c0 14 -4 27 -13 40s-25 19 -47 19c-23 0 -39 -8 -48 -23c-10 -14 -14 -30 -14 -47h-85c2 55 21 95 58 119c24 14 52 21 85 21c44 0 81 -10 109 -30zM142 66c15 0 27 -5 37 -15c10 -11 15 -23 14 -38c-1 -16 -6 -28 -16 -38c-11 -9 -23 -13 -38 -12c-15 0 -28 5 -38 14
c-9 10 -14 23 -13 39c0 16 6 28 16 37s23 14 38 13z" />
    <glyph glyph-name="uniF101" unicode="&#xf101;" horiz-adv-x="456" 
d="M377 192c0 82 -66 148 -148 148c-82 1 -149 -65 -149 -147c-1 -83 66 -149 148 -149c83 0 149 66 149 148zM215 420h26v-53c94 -15 147 -69 162 -162h53v-24c-18 -1 -36 -1 -53 -2c-15 -93 -69 -147 -162 -162v-53h-24v53c-95 16 -149 69 -163 162h-54v2c0 8 1 15 2 24
h52c5 43 21 80 51 110c31 30 68 46 110 51v54zM229 282c49 0 90 -41 90 -90s-41 -91 -91 -90c-49 0 -90 40 -90 90s41 90 91 90z" />
    <glyph glyph-name="uniF102" unicode="&#xf102;" horiz-adv-x="238" 
d="M32 131c-9 -8 -17 -8 -26 0c-8 8 -8 16 0 25l101 97c9 9 17 9 24 0l101 -97c8 -9 8 -17 0 -25c-9 -8 -17 -8 -26 0l-87 80l-87 -80z" />
    <glyph glyph-name="uniF103" unicode="&#xf103;" horiz-adv-x="456" 
d="M35 192v-154c0 -6 2 -13 4 -19c7 -14 19 -20 35 -20h223c11 0 16 4 17 14s1 20 2 30v45c0 9 7 15 16 16h6c21 0 41 0 62 1c15 0 21 6 21 20v222c0 6 -2 12 -4 18c-7 14 -19 20 -35 20h-194h-115c-12 0 -23 -4 -30 -14c-6 -8 -8 -16 -8 -25v-154zM456 356v-238
c-1 -2 -2 -4 -3 -5c-5 -14 -15 -25 -25 -35c-26 -26 -52 -53 -78 -79c-14 -14 -29 -28 -48 -35h-238c-1 1 -2 1 -3 1c-25 4 -42 17 -53 39c-4 7 -5 16 -8 24v328c1 1 1 2 1 3c4 25 17 42 39 53c7 4 16 5 24 8h328c1 -1 2 -1 3 -1c25 -4 42 -17 53 -39c4 -7 5 -16 8 -24z
M229 279h101c8 0 15 -2 18 -9c6 -12 -2 -24 -16 -25h-2h-205c-9 0 -15 3 -18 11c-4 10 2 21 13 23h7h102zM210 157h-85c-11 0 -18 7 -19 16c-1 11 7 18 18 19h6h166c9 0 15 -4 18 -12c4 -9 -2 -20 -11 -22c-3 -1 -6 -1 -9 -1h-84z" />
    <glyph glyph-name="uniF104" unicode="&#xf104;" horiz-adv-x="434" 
d="M398 88h-7v-11h7v11zM163 -14h-17v-8h17v8zM391 149h7v17h-7v-17zM199 -14h-16v-7h16v7zM219 -14v-7l1 -1h10c7 0 7 1 5 8h-16zM327 -21h17v7h-17v-7zM308 -14h-19c2 -3 3 -7 4 -7c5 -1 10 -1 15 -1v8zM255 -21h17v7h-17v-7zM110 -14c-1 -8 -1 -8 6 -8h5c7 0 7 1 6 8h-17
zM91 -14h-17v-7h17v4v3zM275 231h-17v-7h17v7zM239 231h-18v-7h18v7zM202 231h-17v-7h17v7zM166 231h-17v-7h17v7zM391 41h7v17h-7v-17zM30 60h-7v-17h7v17zM30 97h-7v-18h7v18zM130 231h-18v-7h18v7zM94 231h-18v-7h18v7zM30 133h-7v-17h7v17zM30 169h-7v-17h7v17zM347 231
h-17v-7h17v7zM294 231v-7h11c7 0 7 0 5 7h-16zM58 224c0 1 -1 4 -1 7c-6 -3 -12 -5 -18 -8c2 -3 3 -5 5 -6c5 2 9 4 14 7zM56 -13c-5 3 -9 5 -14 8c-2 -2 -3 -4 -5 -6c6 -4 11 -7 17 -10c1 4 1 6 2 8zM25 6c3 1 5 2 7 2c-1 6 -2 11 -2 16h-8zM382 -13c-2 3 -4 5 -5 6
c-5 -2 -10 -5 -15 -7c1 -2 2 -4 2 -7c7 3 12 5 18 8zM396 204c-3 -1 -6 -2 -7 -3c0 -5 1 -10 2 -15h8zM395 3c1 6 2 12 4 19h-8c-1 -5 -2 -11 -3 -16c2 -1 3 -2 7 -3zM26 207c-1 -7 -3 -13 -4 -19h8c1 5 2 10 3 16c-2 1 -4 1 -7 3zM384 221c-6 3 -11 6 -17 9
c-1 -3 -2 -5 -2 -7c5 -3 9 -5 14 -8c1 1 3 3 5 6zM321 297c13 -4 26 -9 38 -13c11 -4 11 -4 7 -15c-3 -8 -6 -16 -9 -23c5 -2 6 0 7 3c4 10 8 20 11 30c2 6 2 8 -5 10c-8 3 -17 6 -26 9c-6 3 -13 5 -20 8zM167 361c-16 6 -32 11 -48 17c-8 3 -9 2 -12 -6
c-10 -31 -21 -61 -31 -92c-4 -11 -8 -23 -12 -34c4 -2 6 0 7 3l12 36l27 78c2 7 3 7 10 5c6 -2 11 -4 17 -6l27 -9c1 3 2 5 3 8zM395 126h-17c-9 0 -16 -7 -16 -16c-1 -9 6 -17 15 -17c12 -1 23 -1 35 0c9 0 16 8 15 17c0 8 -7 16 -16 16h-16zM89 281c3 -1 6 -1 8 -2
c3 -2 5 -1 7 2c3 5 7 8 11 12c3 -4 5 -7 7 -9c-4 -7 -8 -13 -10 -19c-1 -3 1 -8 3 -10c2 -1 7 0 10 1c3 2 6 6 7 9c4 11 8 23 12 34c1 1 1 2 1 4c-13 3 -27 2 -39 -3c-19 -8 -29 -26 -24 -45c3 -10 3 -10 13 -10h8c-2 4 -4 7 -4 10c1 9 -4 13 -12 15c0 0 -1 0 -1 1
c1 3 2 6 3 10zM277 246c4 -1 6 -1 7 3c12 32 23 64 35 96c2 6 2 7 -4 9c-36 13 -71 27 -107 40c-8 2 -8 2 -11 -6c-16 -43 -32 -85 -47 -128c-2 -5 -4 -9 -5 -14c4 -2 5 0 7 4c15 43 31 86 47 129c3 7 3 7 10 5c32 -12 64 -24 97 -36c7 -2 7 -3 5 -11
c-8 -21 -16 -42 -23 -63c-4 -9 -7 -19 -11 -28zM210 298c-6 -5 -11 -11 -12 -20c0 -7 6 -11 12 -7c4 2 7 5 10 8c4 4 7 9 11 11c11 7 23 3 27 -9c2 -4 2 -9 3 -14c4 -2 9 -4 14 -5c-1 -4 -3 -8 -4 -12c-5 2 -9 4 -13 5c-2 -3 -4 -6 -6 -10h17c3 0 5 1 6 4c7 14 6 27 -2 40
c-13 21 -41 35 -66 31c-14 -2 -26 -8 -34 -21c-11 -19 -2 -40 11 -52c0 -1 2 -2 3 -2h48c2 3 3 5 4 7c4 5 8 10 9 17c0 7 -6 12 -13 8l-9 -9c-3 -4 -6 -8 -10 -10c-11 -7 -24 -3 -28 9c-2 4 -2 9 -3 15c-4 1 -8 3 -12 4c1 4 3 8 4 11l12 -3c1 2 3 4 4 6c8 9 10 9 16 0
c1 0 1 -1 1 -2zM175 381c3 10 7 20 10 29c4 9 9 11 17 8c44 -16 87 -31 130 -47c11 -4 13 -9 9 -20c-3 -8 -6 -17 -9 -25c14 -5 27 -10 41 -15c6 -3 12 -5 17 -7c8 -3 11 -9 8 -16c-5 -15 -11 -29 -16 -43c5 -2 10 -3 15 -6c15 -8 23 -22 23 -39c1 -23 1 -45 0 -68
c0 -2 1 -4 4 -5c13 -8 13 -27 0 -35c-3 -2 -4 -4 -4 -6c1 -25 1 -51 0 -76c0 -23 -16 -42 -39 -45c-9 -1 -18 0 -28 0h-305c-28 0 -48 19 -48 47v117v68c0 24 14 43 36 47c7 1 10 4 12 10c15 46 31 92 47 138c4 11 8 14 20 10c19 -7 39 -14 60 -21zM378 100
c-6 0 -10 3 -11 8c0 4 3 9 7 10c7 2 13 -1 15 -5c3 -7 -2 -13 -11 -13z" />
    <glyph glyph-name="uniF105" unicode="&#xf105;" 
d="M472 338c-13 -18 -29 -35 -49 -50v-12c0 -44 -10 -87 -30 -128c-21 -41 -53 -76 -96 -104s-92 -42 -148 -42c-55 0 -104 13 -149 42c5 -1 13 0 24 0c45 0 85 13 120 40c-21 1 -40 8 -56 20c-17 12 -28 28 -34 48c3 -1 9 -2 17 -2c9 0 18 0 26 2c-23 5 -41 16 -56 34
c-14 18 -21 39 -21 62v0c12 -6 27 -11 43 -12c-29 20 -43 48 -43 82c0 16 4 32 13 48c53 -64 119 -98 200 -100c-2 6 -3 12 -3 20c0 27 9 50 28 68c19 19 42 28 69 28c28 0 51 -8 70 -28c20 4 41 11 61 22c-7 -22 -21 -41 -42 -54c19 3 38 9 56 16z" />
    <glyph glyph-name="uniF106" unicode="&#xf106;" horiz-adv-x="437" 
d="M218 -11c0 0 44 37 57 63c8 14 21 33 16 68l76 -22s56 -17 64 -58c9 -42 5 -61 0 -66c-16 -17 6 -13 -213 -13s-197 -4 -213 13c-5 5 -9 24 0 66c8 41 64 58 64 58l76 22c-5 -35 8 -54 16 -68c13 -26 57 -63 57 -63zM217 127h17l12 -16s-5 -17 -21 -26l21 -51
s-12 -21 -28 -28c-17 7 -28 29 -28 29l21 51c-16 9 -21 25 -21 25l12 16h15zM320 257c-5 -21 -12 -26 -14 -27l-6 -1l-1 -7s-6 -21 -19 -40c-17 -26 -38 -38 -62 -38s-45 12 -62 38c-13 19 -19 40 -19 40l-1 7l-6 1c-2 1 -9 6 -14 27c-2 8 -1 12 0 13h1v0l20 -5l-7 20
c0 1 -5 16 -5 37c31 9 49 35 49 35s-4 -18 54 -39c29 -10 59 -12 82 -11c-2 -13 -4 -21 -4 -22l-8 -20l21 5v0h1c1 -1 2 -5 0 -13zM319 282c-1 0 -2 3 -2 3s3 6 5 29h1s2 -4 2 -3v3c0 2 -1 3 -1 4h1v3v7c0 1 -1 2 -1 4v0c0 1 -1 2 -1 3v0v4v0c0 1 -1 3 -1 4v0v4v0
c-1 1 -1 2 -1 3v1c0 1 0 2 -1 3v0c0 2 0 3 -1 4v0c0 2 0 3 -1 4v0c0 1 -1 3 -1 4c-17 46 -75 57 -99 57s-82 -11 -99 -57c0 -1 0 -2 -1 -3v0c0 -1 0 -2 -1 -3v0v-3h-1v-3v0c-1 -1 -1 -2 -1 -3v0v-3h-1v-3v0v-3v0c0 -1 -1 -2 -1 -3v0v-3v0v-3v0v-5s1 -1 1 -1c0 -2 1 -3 1 -5
v0c0 -1 -2 0 -2 0v0c1 0 6 -39 6 -39h-2c-6 0 -18 -3 -12 -28c7 -32 21 -36 21 -36s23 -87 92 -87s92 87 92 87s14 4 21 35c6 25 -6 28 -12 28z" />
    <glyph glyph-name="uniF107" unicode="&#xf107;" horiz-adv-x="454" 
d="M358 104c15 0 27 12 27 27c0 16 -12 28 -27 28c-16 0 -28 -12 -28 -28c0 -15 12 -27 28 -27zM201 216h92l-33 63h-59v-63zM184 216v63h-60l-33 -63h93zM107 104c16 0 28 12 28 27c0 16 -12 28 -28 28c-15 0 -28 -12 -28 -28c0 -15 13 -27 28 -27zM437 171h17v-40h-48
c-1 -26 -22 -47 -48 -47s-48 21 -48 47h-155c0 -26 -22 -47 -48 -47s-47 21 -48 47h-59v40h13v31l50 20l43 78h168l59 -78l104 -30v-21zM301 118l6 -15h-149l6 15h137zM51 118c1 -5 3 -10 6 -15h-44v15h38zM408 103h33v15h-27c-1 -5 -3 -10 -6 -15z" />
    <glyph glyph-name="uniF108" unicode="&#xf108;" 
d="M233 428c65 0 120 -22 167 -67c46 -45 70 -100 72 -165c0 -65 -22 -121 -68 -167c-45 -47 -100 -71 -165 -73c-65 0 -121 22 -167 68c-47 45 -71 100 -72 165s21 121 67 167c46 47 101 71 166 72zM232 49c10 0 19 3 25 9c6 7 10 15 10 24c0 11 -2 19 -9 26
c-6 6 -15 9 -25 9h-1c-10 0 -18 -3 -24 -9c-7 -6 -10 -14 -11 -24c0 -10 3 -18 10 -25c6 -6 14 -10 24 -10h1zM317 217c9 11 13 24 13 40c0 26 -9 46 -27 59s-41 19 -69 19c-22 0 -40 -4 -53 -13c-24 -14 -36 -39 -37 -75v-2h56v2c0 9 3 18 8 28c6 8 15 12 28 12
c14 0 23 -3 27 -10c5 -7 8 -14 8 -23c0 -6 -3 -13 -8 -20c-3 -4 -7 -8 -11 -10l-3 -2c-2 -2 -4 -4 -8 -6c-3 -2 -7 -5 -10 -8c-4 -2 -7 -5 -11 -8s-7 -6 -9 -9c-4 -7 -7 -20 -9 -40v-4h56v2c0 4 0 9 2 14c2 7 6 13 14 19l14 9c16 12 25 20 29 26z" />
    <glyph glyph-name="uniF109" unicode="&#xf109;" horiz-adv-x="452" 
d="M404 320c27 0 48 -21 48 -48v-173c0 -19 -11 -35 -26 -43v-80l-106 74h-183c-23 0 -43 17 -47 39l47 34h178c16 0 30 6 42 16h20c9 0 17 7 17 16s-8 17 -17 17c1 5 2 10 2 15v15c8 1 15 8 15 16c0 9 -7 15 -15 16v86h25zM290 289h-215c-9 0 -17 8 -17 17s8 17 17 17h215
c9 0 17 -8 17 -17s-8 -17 -17 -17zM290 227h-215c-9 0 -17 7 -17 16c0 10 8 17 17 17h215c9 0 17 -7 17 -17c0 -9 -8 -16 -17 -16zM315 408h-267c-27 0 -48 -21 -48 -48v-173c0 -19 11 -35 26 -43v-80l106 75h183c26 0 48 21 48 48v173c0 27 -22 48 -48 48z" />
    <glyph glyph-name="uniF10A" unicode="&#xf10a;" horiz-adv-x="296" 
d="M288 228l-120 -115c-6 -6 -12 -9 -20 -9s-14 3 -20 9l-120 115c-6 5 -8 12 -8 21c0 8 2 15 8 21c13 13 26 13 40 0l100 -96l100 96c14 13 27 13 40 0c6 -6 8 -13 8 -21c0 -9 -2 -16 -8 -21z" />
    <glyph glyph-name="uniF10B" unicode="&#xf10b;" horiz-adv-x="458" 
d="M240 152c22 6 35 29 29 51s-29 35 -51 29s-35 -29 -29 -51s29 -35 51 -29zM379 132l40 -70l-58 -59l-70 39l-41 -12l-40 -67l-80 21l-1 80l-28 29v0h-79l-22 80l68 40l11 39v0l-40 70l58 59l70 -40l40 11l41 69l80 -21l1 -80l28 -29h79l22 -80l-68 -40z" />
    <glyph glyph-name="uniF10C" unicode="&#xf10c;" horiz-adv-x="428" 
d="M404 18c-16 21 -73 41 -108 56c-34 15 -30 42 -30 42v34c22 10 27 54 27 54s16 1 20 25c4 20 -5 27 -9 29c44 144 -40 140 -40 140s-9 32 -69 21c-60 -12 -81 -47 -81 -97c0 -29 5 -51 9 -64c-4 -3 -12 -11 -8 -29c4 -24 20 -25 20 -25s5 -44 27 -54v-34s4 -27 -30 -42
c-35 -15 -92 -35 -108 -56c-16 -22 -22 -32 -24 -55h428c-2 23 -8 33 -24 55z" />
    <glyph glyph-name="uniF10D" unicode="&#xf10d;" horiz-adv-x="136" 
d="M129 104c9 -9 9 -17 0 -25s-17 -8 -24 0l-99 100c-8 8 -8 16 0 25l99 100c7 9 15 9 24 0c9 -8 9 -16 0 -25l-80 -88l80 -87z" />
    <glyph glyph-name="uniF10E" unicode="&#xf10e;" horiz-adv-x="238" 
d="M231 2c9 -9 9 -17 0 -24c-8 -9 -17 -9 -24 0l-201 202c-8 8 -8 15 0 24l201 202c7 9 16 9 24 0c9 -7 9 -15 0 -24l-183 -190l183 -190z" />
    <glyph glyph-name="uniF10F" unicode="&#xf10f;" 
d="M233 428c65 0 120 -22 167 -67c46 -45 70 -100 72 -165c0 -65 -22 -121 -68 -167c-45 -47 -100 -71 -165 -73c-65 0 -121 22 -167 68c-47 45 -71 100 -72 165s21 121 67 167c46 47 101 71 166 72zM260 350c-15 0 -26 -4 -34 -13c-8 -8 -12 -16 -12 -25c0 -10 2 -17 8 -23
c6 -5 14 -8 25 -8c13 0 24 4 31 11c8 8 12 17 12 28c0 20 -10 30 -30 30zM198 46c10 0 25 4 43 13c19 9 37 22 54 40l-9 12c-16 -12 -28 -18 -37 -18c-4 0 -5 6 -2 19l22 82c9 33 5 49 -11 49c-11 0 -26 -5 -46 -15s-40 -22 -59 -38l8 -13c18 11 31 17 38 17c4 0 4 -6 0 -17
l-18 -78c-9 -36 -3 -53 17 -53z" />
    <glyph glyph-name="uniF110" unicode="&#xf110;" horiz-adv-x="492" 
d="M246 438c68 0 126 -24 174 -72s72 -106 72 -174s-24 -125 -72 -174c-48 -48 -106 -72 -174 -72s-125 24 -174 72c-48 49 -72 106 -72 174s24 126 72 174c49 48 106 72 174 72zM346 237c11 8 18 16 24 25c-11 -4 -20 -7 -28 -8c10 7 18 15 22 27c-10 -5 -21 -9 -31 -11
c-10 9 -21 14 -36 14c-13 0 -25 -5 -34 -14c-9 -10 -14 -21 -14 -34c0 -1 0 -2 1 -5v-6c-41 2 -74 19 -99 51c-5 -8 -7 -16 -7 -25c0 -17 7 -30 22 -40c-9 0 -16 3 -22 7v-1c0 -12 3 -22 10 -31c8 -9 17 -14 29 -17c-6 -1 -10 -2 -13 -2c-4 0 -7 1 -9 1c7 -22 22 -33 45 -33
c-17 -14 -37 -21 -60 -21h-12c24 -14 48 -21 74 -21c42 0 75 14 100 42c26 28 38 60 38 96v6z" />
    <glyph glyph-name="uniF111" unicode="&#xf111;" horiz-adv-x="454" 
d="M211 271c1 1 1 1 1 2s0 2 -1 2c0 1 -1 1 -2 1h-2v-5h2h2zM220 275l-2 -6h4zM235 271c0 0 1 1 1 2s-1 2 -1 2c-1 1 -2 1 -3 1h-2v-6h1c2 0 3 0 4 1zM383 134c0 0 11 7 11 29c0 23 -12 31 -12 31c-4 2 -7 7 -7 13v24c-26 -27 -83 -45 -148 -45s-122 18 -148 45v-24
c0 -6 -3 -11 -7 -13c-1 0 -12 -8 -12 -31c0 -22 11 -29 12 -30c2 -1 4 -3 6 -6c0 -1 35 -77 91 -121h116c56 44 91 120 91 121c2 3 4 5 7 7zM158 273v-3v-3l2 -2s1 -2 2 -2s2 -1 4 -1c1 0 2 1 4 1c1 1 2 2 2 3h-2c-1 0 -1 -1 -2 -1h-2h-3l-1 1l-2 2v2v3c1 0 1 1 2 1
c0 1 1 1 1 2h3h2l2 -2h2c0 1 -1 2 -2 3s-3 1 -4 1h-3c-1 -1 -2 -1 -3 -2s-1 -2 -2 -3zM175 278v-15h2v15h-2zM178 278v-2h3v-13h3v13h2v1l5 -9v-5h2v5l5 10h-3l-3 -7l-3 7h-3v-1v1h-8zM205 278v-15h2v6h2c1 0 3 0 4 1s1 2 1 3v3c-1 0 -1 1 -2 1c0 1 -1 1 -1 1h-3h-3z
M221 278h-2l-6 -15h2l2 4h6l1 -4h3zM228 278v-15h2v7l5 -7h3l-5 6c2 0 3 0 4 1c0 1 1 2 1 3c0 2 -1 3 -2 4s-2 1 -4 1h-4zM240 278v-15h2v15h-2zM248 278l-6 -8l6 -7h3l-6 7l6 8h-3zM261 261h-10l-22 -22h12l24 24l-4 6v-8zM252 278v-15h2v15h-2zM257 278v-15h2v12l7 -12h3
v15h-3l1 -12l-8 12h-2zM265 275v-3l-1 2zM280 266v1h1zM273 268v2v3c1 0 1 1 2 1c0 1 1 1 1 2h2h3c0 -1 1 -1 2 -2h2c0 1 -1 2 -2 3s-3 1 -4 1h-3c-1 -1 -2 -1 -3 -2s-1 -2 -2 -3v-3v-3s1 -1 2 -2c0 -1 1 -2 2 -2s2 -1 3 -1c3 0 4 1 6 3c1 1 2 3 2 5h-9v-2h7
c-1 -1 -2 -2 -2 -3h-4h-2c0 0 -1 1 -2 1c0 1 0 1 -1 2zM296 260l-20 -21h12l8 9v12zM264 239l32 32v12l-8 -9v-2h-2h-1h3v-2c0 -2 0 -4 -1 -5s-2 -2 -4 -3s-5 -2 -7 -1c-1 0 -1 0 -1 1l-23 -23h12zM296 306l-26 -26h1v-5c1 2 2 3 5 4c1 1 3 1 5 1l15 14v12zM454 334
c0 -18 -18 -34 -50 -47v-73c10 -9 20 -26 20 -51c0 -28 -13 -45 -23 -52c-8 -18 -45 -89 -102 -132c-3 -2 -6 -3 -9 -3h-126c-3 0 -6 1 -9 3c-57 43 -94 114 -102 132c-10 7 -23 24 -23 52c0 25 10 42 20 51v73c-32 13 -50 29 -50 47c0 41 101 74 227 74s227 -33 227 -74z
M175 78c11 -12 30 -20 52 -20c21 0 40 8 51 20c-6 -20 -27 -34 -51 -34c-25 0 -46 14 -52 34zM163 170c9 0 17 -7 17 -16s-8 -16 -17 -16s-16 7 -16 16s7 16 16 16zM290 170c9 0 17 -7 17 -16s-8 -16 -17 -16s-16 7 -16 16s7 16 16 16zM227 96c11 0 20 8 20 17v4
c-3 -7 -11 -12 -20 -12c-10 0 -18 5 -20 12c-1 -1 -1 -3 -1 -4c0 -9 9 -17 21 -17z" />
    <glyph glyph-name="uniF112" unicode="&#xf112;" 
d="M57 248c16 0 29 -5 40 -16s16 -24 16 -40c0 -15 -5 -28 -16 -39c-11 -12 -24 -17 -40 -17s-29 5 -40 17c-11 11 -17 24 -17 39c0 16 6 29 17 40s24 16 40 16zM236 248c16 0 29 -5 40 -16s16 -24 16 -40c0 -15 -5 -28 -17 -39c-11 -12 -24 -17 -39 -17s-28 5 -39 17
c-12 11 -17 24 -17 39c0 16 5 29 16 40s24 16 40 16zM415 248c16 0 29 -5 40 -16s17 -24 17 -40c0 -15 -6 -28 -17 -39c-11 -12 -24 -17 -40 -17c-15 0 -29 5 -40 17c-11 11 -16 24 -16 39c0 16 5 29 16 40s25 16 40 16z" />
    <glyph glyph-name="uniF125" unicode="&#xf125;" horiz-adv-x="384" 
d="M362 266c0 0 12 2 22 6c0 -16 -7 -32 -9 -36c-28 -50 -99 -123 -181 -84c-65 31 -92 30 -117 24c-1 0 -2 -1 -3 -1c-3 -1 -15 -5 -26 -1v197c0 16 14 31 33 35c39 7 106 5 148 -74c39 -74 97 -72 133 -66zM24 416c4 0 8 -4 8 -8v-432c0 -4 -4 -8 -8 -8h-16
c-4 0 -8 4 -8 8v432c0 4 4 8 8 8h16z" />
    <glyph glyph-name="uniF113" unicode="&#xf113;" horiz-adv-x="456" 
d="M93 186c-18 -37 -37 -73 -55 -110l66 -33l21 108c0 1 0 3 -1 4zM242 190v-2v-97c0 -3 2 -4 4 -5l72 -36c1 0 2 -1 3 -1l1 1c-7 33 -14 66 -20 99c0 1 -1 2 -3 3c-18 13 -37 25 -57 38zM214 190c-20 -13 -39 -25 -58 -38c-1 -1 -2 -3 -2 -4l-15 -75c-2 -8 -3 -16 -5 -24
c1 0 2 0 2 1c25 12 50 24 75 37c3 1 3 3 3 5v94v4zM0 64l3 6c27 53 53 106 80 159c0 2 1 3 2 5c2 -1 3 -2 4 -3c16 -16 33 -33 49 -50c3 -3 5 -3 9 -1c26 18 52 35 77 52c3 2 5 2 8 0c25 -17 51 -34 76 -51c4 -3 7 -3 10 1c1 1 2 1 3 2c4 -9 9 -17 13 -26
c-5 -3 -3 -7 -2 -12c6 -32 13 -65 19 -98c1 -2 1 -3 1 -5l66 33c-1 2 -2 3 -2 4c-8 15 -15 30 -22 45c-1 1 -1 4 0 6c4 9 9 18 14 28c1 -2 2 -3 3 -4c14 -29 29 -58 43 -87c1 -1 2 -3 2 -4v-1c-37 -19 -74 -37 -111 -56c-2 0 -4 0 -6 1c-36 17 -71 35 -107 53
c-3 2 -5 2 -8 0c-36 -18 -71 -36 -107 -53c-2 -1 -4 -1 -6 -1c-37 19 -74 37 -111 56v1zM371 348c23 0 42 -19 42 -43c0 -23 -19 -42 -42 -42c-24 0 -43 19 -43 43c0 23 19 42 43 42zM371 149c-5 9 -9 17 -14 26c-17 33 -33 66 -50 99c-22 42 5 96 52 102
c42 6 78 -21 83 -63c1 -13 -1 -26 -7 -38c-21 -41 -42 -82 -63 -124c0 0 -1 -1 -1 -2z" />
    <glyph glyph-name="uniF114" unicode="&#xf114;" horiz-adv-x="175" 
d="M124 332c4 6 11 9 20 9c8 0 15 -3 21 -9c13 -12 13 -26 0 -41l-96 -100l96 -99c13 -15 13 -29 0 -41c-6 -6 -13 -8 -21 -8s-15 2 -20 8l-116 121c-6 5 -8 11 -8 19s2 15 8 20c70 74 109 114 116 121z" />
    <glyph glyph-name="uniF115" unicode="&#xf115;" horiz-adv-x="440" 
d="M385 412c15 0 28 -5 39 -16c11 -10 16 -23 16 -38v-331c0 -15 -5 -28 -16 -39s-24 -16 -39 -16h-83v158h58v69h-58v36c0 10 5 15 14 15h44v78h-49c-25 0 -46 -9 -63 -28c-17 -18 -26 -41 -26 -67v-34h-53v-69h53v-158h-167c-15 0 -28 5 -39 16s-16 24 -16 39v331
c0 15 5 28 16 38c11 11 24 16 39 16h330z" />
    <glyph glyph-name="uniF116" unicode="&#xf116;" horiz-adv-x="204" 
d="M156 414c15 0 25 -5 33 -13s12 -18 12 -30c0 -15 -7 -28 -18 -39c-12 -11 -26 -17 -42 -17c-14 0 -25 4 -33 12s-11 18 -10 32c0 13 5 26 15 37s25 18 43 18zM65 -30c-29 0 -37 26 -24 79l26 113c4 16 4 25 0 25c-3 0 -11 -3 -24 -8c-12 -6 -22 -11 -31 -17l-12 20
c27 22 55 41 84 55c29 15 52 22 67 22c23 0 28 -24 16 -72l-31 -118c-5 -19 -5 -28 2 -28c13 0 30 8 52 26l14 -18c-25 -25 -51 -45 -78 -58c-27 -14 -47 -21 -61 -21z" />
    <glyph glyph-name="uniF117" unicode="&#xf117;" horiz-adv-x="386" 
d="M57 -37v57h272v344h-272v57h329v-458h-329zM100 358c69 -55 137 -110 205 -166c-68 -55 -136 -110 -205 -166v105h-100v122h100v105z" />
    <glyph glyph-name="uniF118" unicode="&#xf118;" horiz-adv-x="296" 
d="M288 156c6 -5 8 -12 8 -21c0 -8 -2 -15 -8 -21c-13 -13 -26 -13 -40 0l-100 96l-100 -96c-14 -13 -27 -13 -40 0c-6 6 -8 13 -8 21c0 9 2 16 8 21l120 115c5 5 12 8 20 8s15 -3 20 -8l120 -115z" />
    <glyph glyph-name="uniF119" unicode="&#xf119;" horiz-adv-x="444" 
d="M33 304l189 -183l190 183c8 9 16 9 25 0c9 -8 9 -16 0 -25l-203 -201c-7 -7 -15 -7 -24 0l-203 201c-9 9 -9 17 0 25c8 8 17 8 26 0z" />
    <glyph glyph-name="uniF11A" unicode="&#xf11a;" horiz-adv-x="458" 
d="M229 278h-169c-20 0 -32 -12 -32 -32v-223c0 -20 12 -32 32 -32h338c20 0 32 12 32 32v223c0 4 -1 8 -2 11c-3 14 -15 21 -30 21h-169zM458 316v-305v-2c-5 -22 -18 -36 -38 -44c-3 -1 -7 -1 -10 -2h-362h-2c-18 4 -31 14 -39 29c-3 6 -5 13 -7 19v305c0 3 1 6 2 8
c11 32 40 44 69 39v-14c1 -14 10 -25 24 -27c8 -1 17 0 25 -1c25 -2 39 13 37 37v6h144v-15c1 -14 10 -25 23 -27c11 -1 21 -1 32 -1c19 0 30 12 31 31v12h14c25 0 46 -15 54 -37c1 -4 2 -8 3 -11zM133 421c8 -3 10 -10 10 -18v-53c0 -9 -6 -15 -15 -15h-28s-14 6 -14 15
c0 18 0 35 -1 53c0 8 3 15 10 18h38zM363 421c7 -3 10 -10 10 -18c-1 -18 -1 -35 -1 -53c0 -9 -5 -15 -15 -15h-27s-15 6 -15 15v53c0 8 2 15 10 18h38zM114 221h15c8 0 14 -6 14 -14v-30c0 -8 -6 -14 -14 -14h-29c-8 0 -14 6 -14 14v30c0 8 6 14 13 14h15zM200 192v15
c0 8 6 14 14 14h30c8 0 14 -6 14 -14v-30c0 -8 -6 -14 -14 -14h-30c-8 0 -14 6 -14 14v15zM343 163h-14c-8 0 -14 6 -14 14v30c0 8 6 14 14 14h29c8 0 14 -6 14 -14v-30c0 -8 -6 -14 -13 -14h-16zM143 77v-14c0 -9 -6 -14 -14 -14h-29s-14 6 -14 14v29c0 8 6 14 14 14h29
c8 0 14 -6 14 -14v-15zM229 106h15c8 0 14 -6 14 -14v-29c0 -8 -6 -14 -14 -14h-30c-8 0 -14 6 -14 14v29c0 8 6 14 14 14h15zM372 77v-15c0 -7 -6 -13 -14 -13h-29c-8 0 -14 6 -14 14v29c0 8 6 14 14 14h30c7 0 13 -6 13 -14v-15z" />
    <glyph glyph-name="uniF11B" unicode="&#xf11b;" horiz-adv-x="256" 
d="M256 343h-73c-4 0 -9 -3 -13 -8c-3 -5 -5 -12 -5 -19v-52h91v-76h-91v-226h-87v226h-78v76h78v44c0 32 10 59 30 81s45 33 75 33h73v-79z" />
    <glyph glyph-name="uniF11C" unicode="&#xf11c;" horiz-adv-x="442" 
d="M411 78l-190 184l-189 -184c-9 -7 -18 -7 -26 0c-8 9 -8 17 0 26l203 200c9 9 17 9 24 0l203 -200c8 -9 8 -17 0 -26c-9 -7 -17 -7 -25 0z" />
    <glyph glyph-name="uniF11D" unicode="&#xf11d;" horiz-adv-x="492" 
d="M246 438c68 0 126 -24 174 -72s72 -106 72 -174s-24 -125 -72 -174c-48 -48 -106 -72 -174 -72s-126 24 -174 72c-48 49 -72 106 -72 174s24 126 72 174s106 72 174 72zM304 269v40h-36c-16 0 -28 -6 -38 -17c-11 -11 -16 -25 -16 -42v-22h-39v-38h39v-114h44v114h46v38
h-46v26c0 10 3 15 10 15h36z" />
    <glyph glyph-name="uniF126" unicode="&#xf126;" horiz-adv-x="384" 
d="M384 256l-128 -96v64h-192v-128h248c4 0 8 -4 8 -8v-48c0 -4 -4 -8 -8 -8h-304c-4 0 -8 4 -8 8v240c0 4 4 8 8 8h248v64z" />
    <glyph glyph-name="uniF11E" unicode="&#xf11e;" horiz-adv-x="238" 
d="M7 2l183 190l-183 190c-9 9 -9 17 0 24c8 9 17 9 24 0l201 -202c8 -9 8 -16 0 -24l-201 -202c-7 -9 -16 -9 -24 0c-9 7 -9 15 0 24z" />
    <glyph glyph-name="uniF11F" unicode="&#xf11f;" horiz-adv-x="442" 
d="M207 420h28c10 -20 26 -31 48 -38c35 -10 60 -34 71 -68c9 -31 15 -64 16 -95c2 -68 11 -132 72 -174v-4h-442c2 8 7 12 12 15c39 29 54 71 57 118c2 29 2 58 5 87c6 56 29 102 85 121c22 8 38 18 48 38zM207 -36c-22 10 -42 21 -46 50h120c-1 -28 -24 -37 -41 -50h-33z
" />
    <glyph glyph-name="uniF120" unicode="&#xf120;" horiz-adv-x="292" 
d="M56 248c16 0 29 -5 40 -16s17 -24 17 -40c0 -15 -6 -28 -17 -39c-11 -12 -24 -17 -40 -17c-15 0 -29 5 -40 16c-10 11 -16 24 -16 40s6 29 16 40c11 11 25 16 40 16zM236 248c15 0 29 -5 40 -16c10 -11 16 -24 16 -40c0 -15 -6 -28 -17 -39c-11 -12 -24 -17 -39 -17
c-16 0 -29 5 -40 16s-17 24 -17 40s6 29 17 40s24 16 40 16z" />
    <glyph glyph-name="uniF121" unicode="&#xf121;" horiz-adv-x="248" 
d="M227 22v340h-206v-340h206zM155 -18c6 0 12 6 12 12c0 7 -6 13 -12 13h-61c-7 0 -13 -6 -13 -13c0 -6 6 -12 13 -12h29h1h1h30zM205 419c24 0 43 -19 43 -43v-368c0 -24 -19 -43 -43 -43h-162c-24 0 -43 19 -43 43v368c0 24 19 43 43 43h162zM146 145c-4 -4 -8 -6 -14 -8
l1 44c7 -2 11 -5 14 -9c3 -3 4 -8 4 -13s-2 -10 -5 -14zM118 218c-5 2 -9 5 -11 8c-2 4 -3 8 -3 11c0 5 1 9 4 12c3 4 6 6 11 7zM170 192c-7 8 -18 15 -36 20l1 44c7 -4 12 -10 13 -19l28 3c-1 12 -6 20 -13 27s-16 12 -28 13l1 11l-16 1l-1 -11c-12 -1 -23 -6 -30 -14
c-8 -8 -13 -18 -13 -30s3 -23 10 -31c6 -8 17 -15 31 -20l-1 -47c-4 3 -8 6 -11 10s-5 10 -6 16l-30 -3c3 -14 7 -25 15 -34c8 -8 18 -13 31 -15l-1 -20l17 -1v21c15 2 26 7 35 16c8 9 12 20 12 34c1 12 -2 22 -8 29z" />
    <glyph glyph-name="uniF122" unicode="&#xf122;" horiz-adv-x="136" 
d="M7 104l81 87l-81 88c-9 9 -9 17 0 25c9 9 17 9 24 0l99 -100c8 -9 8 -17 0 -25l-99 -100c-7 -8 -15 -8 -24 0s-9 16 0 25z" />
    <glyph glyph-name="uniF123" unicode="&#xf123;" horiz-adv-x="240" 
d="M208 253c8 9 16 9 25 0c9 -7 9 -15 0 -24l-101 -98c-7 -8 -15 -8 -24 0l-101 98c-9 9 -9 17 0 24c9 9 17 9 26 0l87 -79l88 79z" />
    <glyph glyph-name="uniF124" unicode="&#xf124;" horiz-adv-x="174" 
d="M50 332l116 -121c5 -5 8 -12 8 -20s-3 -14 -8 -19l-116 -121c-5 -6 -12 -8 -20 -8c-9 0 -15 2 -21 8c-12 12 -12 26 0 41l95 99l-95 100c-12 15 -12 29 0 41c6 6 13 9 21 9c9 0 15 -3 20 -9z" />
  </font>
</defs>
</svg>
